<svg width="124" height="41" viewBox="0 0 124 41" fill="none" xmlns="http://www.w3.org/2000/svg">
<path d="M47.0794 0.716208L30.8441 39.9384H20.2528L12.2647 8.63783C11.7795 6.71006 11.3576 6.00417 9.88388 5.19096C7.47661 3.86793 3.49778 2.62748 0 1.85554L0.238432 0.716208H17.2891C19.462 0.716208 21.4168 2.18166 21.91 4.71625L26.1294 27.412L36.5575 0.716208H47.0835H47.0794ZM88.5799 27.1333C88.6227 16.7824 74.444 16.2107 74.5418 11.5873C74.5724 10.1796 75.8953 8.68325 78.7918 8.30141C80.2268 8.11153 84.1832 7.96499 88.6695 10.0558L90.4286 1.73788C88.0173 0.852422 84.917 0 81.0564 0C71.1521 0 64.183 5.33131 64.1239 12.966C64.0607 18.6131 69.0995 21.7628 72.8949 23.639C76.8003 25.5606 78.111 26.7949 78.0967 28.5142C78.0682 31.1458 74.9822 32.3078 72.0959 32.3532C67.0592 32.4316 64.1382 30.9724 61.8064 29.8764L59.9902 38.4688C62.3323 39.5566 66.6535 40.506 71.1338 40.5535C81.6597 40.5535 88.5473 35.2882 88.5778 27.1354L88.5799 27.1333ZM114.734 39.9384H124L115.91 0.716208H107.357C105.433 0.716208 103.812 1.84934 103.093 3.59342L88.056 39.9384H98.5779L100.667 34.0787H113.523L114.734 39.9384ZM103.553 26.0415L108.827 11.3149L111.862 26.0415H103.553ZM61.3967 0.716208L53.1108 39.9384H43.0904L51.3782 0.716208H61.3946H61.3967Z" fill="white"/>
</svg>
